<?xml version="1.0" encoding="UTF-8"?>
<svg version="1.1" xmlns="http://www.w3.org/2000/svg" xmlns:xlink="http://www.w3.org/1999/xlink" x="0px" y="0px" viewBox="0 0 191.1 218.1" style="enable-background:new 0 0 191.1 218.1;" xml:space="preserve">
<path d="M169.9,74.3h10.2c3.1,0,5.7,1,7.8,3c2.1,2,3.1,4.5,3.1,7.5s-1.1,5.5-3.3,7.6c-2.2,2.1-4.7,3.1-7.7,3.1h-10.2v98.1  c0,6.7-2.4,12.4-7.2,17.2s-10.6,7.2-17.5,7.2H45.9c-6.8,0-12.7-2.4-17.5-7.2s-7.2-10.6-7.2-17.2V95.5H11c-2.9,0-5.5-1-7.7-3.1  C1.1,90.3,0,87.8,0,84.8s1.1-5.4,3.1-7.5c2.1-2,4.7-3,7.8-3h10.2V62.7h148.7V74.3z M137.9,28.2h17.9c6.7,0,12.4,2.3,17.1,7  c4.7,4.7,7.1,10.2,7.1,16.8H10.2c0-6.5,2.4-12.1,7.1-16.8c4.7-4.7,10.4-7,17.1-7h18.6V10.5c0-2.9,1-5.4,3-7.5c2-2,4.5-3,7.5-3h63.8  c2.9,0,5.4,1,7.5,3c2,2,3,4.5,3,7.5V28.2z M62.7,92.5H48.9v103.7h13.7V92.5z M119.1,14.7H72v13.5h47.1V14.7z M102.5,92.5h-14v103.7  h14V92.5z M142.1,92.5h-13.7v103.7h13.7V92.5z"/>
</svg>